<?xml version="1.0" encoding="UTF-8"?> <svg xmlns="http://www.w3.org/2000/svg" id="Layer_1" data-name="Layer 1" viewBox="0 0 46.28 69.42"><defs><style>.cls-1{fill:#fff;}.cls-2{fill:#231f20;}</style></defs><polygon class="cls-1" points="46.28 0 0 0 0 69.42 46.28 69.42 46.28 0 46.28 0"></polygon><polyline class="cls-2" points="45.61 0.72 45.61 68.7 0.67 68.7 0.67 0.72 45.61 0.72"></polyline><rect class="cls-1" x="2.79" y="2.85" width="40.69" height="19.05"></rect><rect class="cls-1" x="2.78" y="24.05" width="40.69" height="34.87"></rect><polygon class="cls-1" points="2.77 66.58 2.77 60.98 10.94 60.98 10.94 62.29 6.05 62.29 6.05 63.09 10.19 63.09 10.19 64.39 6.05 64.39 6.05 65.27 11.13 65.27 11.13 66.58 2.77 66.58"></polygon><path class="cls-1" d="M390.48,334.05a.6.6,0,0,0-.47-.37,2.66,2.66,0,0,0-.85-.11c-.72,0-1,.12-1,.33,0,.83,5.76.31,5.76,2.34,0,1.3-1.94,1.93-4.69,1.93s-4.37-.86-4.44-1.87h3.14a.85.85,0,0,0,.55.44,3,3,0,0,0,.93.14c.82,0,1.37-.15,1.37-.41,0-.85-5.77-.27-5.77-2.4,0-1.19,1.84-1.79,4.35-1.79,2.78,0,4,.8,4.28,1.77Z" transform="translate(-372.41 -271.44)"></path><path class="cls-1" d="M398.79,334.85h1.29c1,0,1.56-.15,1.56-.53s-.55-.59-1.32-.59h-1.53Zm0,1.22V338h-3.28v-5.6h4.73c3.34,0,4.43.52,4.43,1.6,0,.65-.51,1.19-1.67,1.38,1.05.21,1.69.34,1.69,1.47,0,.73,0,1,.35,1V338h-3.33a2.23,2.23,0,0,1-.16-1c0-.73-.23-1-1.76-1Z" transform="translate(-372.41 -271.44)"></path><path class="cls-1" d="M410,333.73v.94h1.37c.66,0,1.13-.17,1.13-.49s-.65-.45-1.34-.45Zm0,1.95v1h1.44c.81,0,1.42-.1,1.42-.52s-.76-.52-1.81-.52ZM406.69,338v-5.6h4.79c2.26,0,4,.31,4,1.42,0,.57-.67,1-1.31,1.21,1.09.16,1.67.68,1.67,1.28,0,1.25-1.71,1.69-4.31,1.69Z" transform="translate(-372.41 -271.44)"></path><path d="M396.89,317.17c-.59-2.2-1.77-3.49-3.45-3.94,1-1.22,1.64-3.11.84-6.09-1.13-4.15-4-6.16-7.46-5.24l-7.89,2.1-.16.05,6.54,24.19,5.28-1.41s-2.15-7.92-2.52-9.32l.26-.06a2.43,2.43,0,0,1,1.79,0c.7.4,1,1.61,1.39,3l.3,1.11a10.2,10.2,0,0,0,1.62,3.93l.35.46,6-1.6-.81-1A34,34,0,0,1,396.89,317.17Zm-8.64-4.32-1.35.35c-.39-1.45-1.29-4.81-1.69-6.27l1.35-.35c.64-.17,1.71-.45,2.49,2.44C389.2,309.59,389.88,312.41,388.25,312.85Z" transform="translate(-372.41 -271.44)"></path><path d="M403.51,297.88l-7.11,1.89-.86.23,6.54,24.2,5.4-1.44S405.37,315,405,313.6l2.32-.61c4.21-1.13,5.82-4.39,4.52-9.2C410.15,297.53,406.38,297.12,403.51,297.88Zm2.2,10.74-1.92.51c-.38-1.43-1.31-4.83-1.69-6.26l1.64-.44c.93-.25,2-.25,2.83,2.87C407,306.78,406.56,308.4,405.71,308.62Z" transform="translate(-372.41 -271.44)"></path><path class="cls-2" d="M377.14,282.75h-.81v-6.33h1.5a.73.73,0,0,1,.66.42,2.41,2.41,0,0,1,.25,1.23,2.81,2.81,0,0,1-.17,1,.81.81,0,0,1-.55.53v0l.18.05a.48.48,0,0,1,.24.16,1.18,1.18,0,0,1,.2.36,2.3,2.3,0,0,1,.08.67v.42c0,.18,0,.37,0,.56s0,.38,0,.54a3.19,3.19,0,0,0,0,.34H378a2.35,2.35,0,0,1-.09-.6V281a2,2,0,0,0-.05-.45.75.75,0,0,0-.18-.3.51.51,0,0,0-.35-.11h-.21Zm0-3.6h.36a.24.24,0,0,0,.2-.08.73.73,0,0,0,.13-.23,2.21,2.21,0,0,0,.07-.3c0-.11,0-.22,0-.32a1.41,1.41,0,0,0-.11-.64.35.35,0,0,0-.31-.19h-.36Z" transform="translate(-372.41 -271.44)"></path><path class="cls-2" d="M379,282.75l1.08-6.33h1.07l1.05,6.33h-.85l-.22-1.4h-1.11l-.22,1.4Zm1.57-5.11h0l-.37,2.73H381Z" transform="translate(-372.41 -271.44)"></path><path class="cls-2" d="M384.61,276.42v1.05h-.9v5.28h-.81v-5.28H382v-1.05Z" transform="translate(-372.41 -271.44)"></path><path class="cls-2" d="M385,282.75v-6.33h.82v6.33Z" transform="translate(-372.41 -271.44)"></path><path class="cls-2" d="M386.49,282.75v-6.33h1.1l1,4.38h0v-4.38h.76v6.33h-1.07l-1.06-4.63h0v4.63Z" transform="translate(-372.41 -271.44)"></path><path class="cls-2" d="M391.85,278.36c0-.14,0-.28,0-.42a1.7,1.7,0,0,0-.06-.35.7.7,0,0,0-.15-.24.37.37,0,0,0-.26-.09.31.31,0,0,0-.29.19,1.54,1.54,0,0,0-.15.52q0,.33-.06.75v.88c0,.5,0,.9,0,1.2a4.47,4.47,0,0,0,.09.71.57.57,0,0,0,.18.34.46.46,0,0,0,.29.09.79.79,0,0,0,.2,0,.72.72,0,0,0,.2-.09v-1.4h-.44v-1h1.25v3.22l-.22.06-.29.07-.31.05-.28,0a1.57,1.57,0,0,1-.81-.18,1.13,1.13,0,0,1-.46-.58,3.76,3.76,0,0,1-.2-1c0-.42,0-.94,0-1.54q0-.6,0-1.17a4.54,4.54,0,0,1,.16-1,1.79,1.79,0,0,1,.41-.73,1,1,0,0,1,.78-.28,1,1,0,0,1,.53.14,1.17,1.17,0,0,1,.41.39,1.86,1.86,0,0,1,.24.64,4,4,0,0,1,.06.88Z" transform="translate(-372.41 -271.44)"></path><path class="cls-2" d="M394.57,276.42H396a.82.82,0,0,1,.48.13,1,1,0,0,1,.32.38,2.36,2.36,0,0,1,.18.6,6,6,0,0,1,.05.78q0,.27,0,.6a2.2,2.2,0,0,1-.15.6,1.06,1.06,0,0,1-.33.47.8.8,0,0,1-.57.19h-.6v2.58h-.81Zm.81,2.78h.45a.25.25,0,0,0,.17-.08.7.7,0,0,0,.13-.19,1.73,1.73,0,0,0,.08-.27,1.63,1.63,0,0,0,0-.31c0-.13,0-.26,0-.37a1.29,1.29,0,0,0-.07-.31.46.46,0,0,0-.14-.21.38.38,0,0,0-.22-.07h-.41Z" transform="translate(-372.41 -271.44)"></path><path class="cls-2" d="M397.55,282.75v-6.33h2.12v1h-1.3V279h1.2v1h-1.2v1.85h1.35v1Z" transform="translate(-372.41 -271.44)"></path><path class="cls-2" d="M400.25,282.75v-6.33h1.1l1,4.38h0v-4.38h.76v6.33h-1.07L401,278.12h0v4.63Z" transform="translate(-372.41 -271.44)"></path><path class="cls-2" d="M403.85,276.42h1.36a1,1,0,0,1,.64.21,1.29,1.29,0,0,1,.39.61,4.18,4.18,0,0,1,.18,1c0,.39.05.83.05,1.32v.57q0,.33,0,.69a4.19,4.19,0,0,1-.1.71,2,2,0,0,1-.21.62,1.25,1.25,0,0,1-.38.44.94.94,0,0,1-.57.17h-1.33Zm.81,5.36h.39a.41.41,0,0,0,.31-.12,1,1,0,0,0,.18-.38,3.73,3.73,0,0,0,.08-.68q0-.42,0-1c0-.29,0-.57,0-.83a6.55,6.55,0,0,0-.06-.7,1.57,1.57,0,0,0-.17-.48.38.38,0,0,0-.33-.18h-.42Z" transform="translate(-372.41 -271.44)"></path><path class="cls-2" d="M407.12,282.75v-6.33h.82v6.33Z" transform="translate(-372.41 -271.44)"></path><path class="cls-2" d="M408.63,282.75v-6.33h1.09l1,4.38h0v-4.38h.76v6.33h-1.07l-1.06-4.63h0v4.63Z" transform="translate(-372.41 -271.44)"></path><path class="cls-2" d="M414,278.36c0-.14,0-.28,0-.42a1.7,1.7,0,0,0-.06-.35.7.7,0,0,0-.15-.24.36.36,0,0,0-.26-.09.31.31,0,0,0-.29.19,1.54,1.54,0,0,0-.15.52q0,.33-.06.75c0,.28,0,.58,0,.88q0,.75,0,1.2a4.47,4.47,0,0,0,.09.71.63.63,0,0,0,.18.34.45.45,0,0,0,.28.09.78.78,0,0,0,.21,0,.72.72,0,0,0,.2-.09v-1.4h-.44v-1h1.25v3.22l-.22.06-.29.07-.31.05-.27,0a1.58,1.58,0,0,1-.82-.18,1.13,1.13,0,0,1-.46-.58,3.42,3.42,0,0,1-.2-1c0-.42-.05-.94-.05-1.54q0-.6,0-1.17a5.16,5.16,0,0,1,.16-1,1.79,1.79,0,0,1,.41-.73,1,1,0,0,1,.78-.28,1,1,0,0,1,.53.14,1.17,1.17,0,0,1,.41.39,1.86,1.86,0,0,1,.24.64,4,4,0,0,1,.06.88Z" transform="translate(-372.41 -271.44)"></path><path class="cls-2" d="M376.32,291.2l.95-6.31h.94l.93,6.31h-.75l-.19-1.4h-1l-.19,1.4Zm1.38-5.09h0l-.32,2.72h.68Z" transform="translate(-372.41 -271.44)"></path><path class="cls-2" d="M381.79,284.89v4.48a4,4,0,0,1-.06.7,2,2,0,0,1-.2.62,1.22,1.22,0,0,1-.35.45.92.92,0,0,1-.55.17.94.94,0,0,1-.88-.53,3,3,0,0,1-.29-1.41v-4.48h.72v4.39a2,2,0,0,0,.12.83.36.36,0,0,0,.32.25c.16,0,.27-.09.34-.28a2.1,2.1,0,0,0,.11-.8v-4.39Z" transform="translate(-372.41 -271.44)"></path><polygon class="cls-2" points="8.86 11.93 8.1 13.18 7.79 13.18 8.22 11.93 8.86 11.93"></polygon><path class="cls-2" d="M382.38,291.2v-6.31h1l.91,4.37h0v-4.37h.67v6.31H384l-.93-4.61h0v4.61Z" transform="translate(-372.41 -271.44)"></path><path class="cls-2" d="M388.7,289.48a3.31,3.31,0,0,1-.11,1,1.35,1.35,0,0,1-.28.55.82.82,0,0,1-.38.24,1.64,1.64,0,0,1-.42.06.85.85,0,0,1-.54-.17,1,1,0,0,1-.31-.45,2.48,2.48,0,0,1-.15-.65,6.85,6.85,0,0,1,0-.79h.71c0,.16,0,.3,0,.43a1.84,1.84,0,0,0,0,.36.46.46,0,0,0,.12.24.32.32,0,0,0,.23.08.28.28,0,0,0,.27-.19,1.28,1.28,0,0,0,.09-.52,1.07,1.07,0,0,0-.11-.49,1.76,1.76,0,0,0-.27-.4l-.34-.38a2.52,2.52,0,0,1-.35-.43,2.82,2.82,0,0,1-.26-.58,2.4,2.4,0,0,1-.11-.81,5.09,5.09,0,0,1,0-.69,1.85,1.85,0,0,1,.19-.56,1,1,0,0,1,.34-.38,1,1,0,0,1,.54-.14.84.84,0,0,1,.78.45,2.91,2.91,0,0,1,.22,1.44H388c0-.11,0-.23,0-.34a1.44,1.44,0,0,0-.05-.31.5.5,0,0,0-.1-.22.21.21,0,0,0-.17-.08.32.32,0,0,0-.27.17,1,1,0,0,0-.1.5,1.13,1.13,0,0,0,.11.51,1.7,1.7,0,0,0,.27.39l.34.35a2.44,2.44,0,0,1,.35.42,2.41,2.41,0,0,1,.26.58A2.49,2.49,0,0,1,388.7,289.48Z" transform="translate(-372.41 -271.44)"></path><path class="cls-2" d="M389.21,291.2v-6.31h.72v6.31Z" transform="translate(-372.41 -271.44)"></path><path class="cls-2" d="M390.53,291.2v-6.31h1l.91,4.37h0v-4.37h.67v6.31h-.95l-.93-4.61h0v4.61Z" transform="translate(-372.41 -271.44)"></path><path class="cls-2" d="M395.89,291.31a.86.86,0,0,1-.69-.28,1.78,1.78,0,0,1-.35-.73,5.42,5.42,0,0,1-.12-1.05c0-.39,0-.79,0-1.2s0-.83,0-1.22a5.31,5.31,0,0,1,.12-1,1.84,1.84,0,0,1,.35-.73.89.89,0,0,1,.69-.27.81.81,0,0,1,.78.54,3.65,3.65,0,0,1,.21,1.56h-.7a3.83,3.83,0,0,0-.07-.9c0-.17-.12-.26-.22-.26a.3.3,0,0,0-.25.14,1.32,1.32,0,0,0-.13.41,6.1,6.1,0,0,0-.06.72c0,.3,0,.65,0,1.05s0,.75,0,1a5.74,5.74,0,0,0,.06.72,1.3,1.3,0,0,0,.13.42.29.29,0,0,0,.25.13.21.21,0,0,0,.19-.13,1.12,1.12,0,0,0,.09-.32,2.77,2.77,0,0,0,0-.42c0-.15,0-.29,0-.41h.71a6.39,6.39,0,0,1-.07,1.06,2.27,2.27,0,0,1-.2.69.79.79,0,0,1-.32.37A.93.93,0,0,1,395.89,291.31Z" transform="translate(-372.41 -271.44)"></path><path class="cls-2" d="M397.11,291.2l.95-6.31H399l.93,6.31h-.75l-.19-1.4h-1l-.19,1.4Zm1.38-5.09h0l-.33,2.72h.68Z" transform="translate(-372.41 -271.44)"></path><path class="cls-2" d="M400.27,291.2v-6.31H401v5.26h1.08v1.05Z" transform="translate(-372.41 -271.44)"></path><path class="cls-2" d="M402.37,291.2v-6.31h.72v6.31Z" transform="translate(-372.41 -271.44)"></path><path class="cls-2" d="M403.67,291.2v-6.31h1.78v1h-1.06v1.62h1v1h-1v2.75Z" transform="translate(-372.41 -271.44)"></path><path class="cls-2" d="M405.79,291.2v-6.31h.71v6.31Z" transform="translate(-372.41 -271.44)"></path><path class="cls-2" d="M408.25,291.31a.84.84,0,0,1-.68-.28,1.66,1.66,0,0,1-.35-.73,5.38,5.38,0,0,1-.13-1.05c0-.39,0-.79,0-1.2s0-.83,0-1.22a5.27,5.27,0,0,1,.13-1,1.72,1.72,0,0,1,.35-.73.87.87,0,0,1,.68-.27.79.79,0,0,1,.78.54,3.79,3.79,0,0,1,.22,1.56h-.71a4.68,4.68,0,0,0-.06-.9c-.05-.17-.12-.26-.23-.26a.28.28,0,0,0-.24.14,1.08,1.08,0,0,0-.14.41,6.1,6.1,0,0,0-.06.72c0,.3,0,.65,0,1.05s0,.75,0,1a5.74,5.74,0,0,0,.06.72,1.08,1.08,0,0,0,.14.42.27.27,0,0,0,.24.13.21.21,0,0,0,.19-.13.87.87,0,0,0,.09-.32,2.72,2.72,0,0,0,0-.42c0-.15,0-.29,0-.41h.7a7.89,7.89,0,0,1-.06,1.06,2.59,2.59,0,0,1-.2.69.81.81,0,0,1-.77.48Z" transform="translate(-372.41 -271.44)"></path><path class="cls-2" d="M409.47,291.2l.95-6.31h.95l.93,6.31h-.76l-.19-1.4h-1l-.2,1.4Zm1.38-5.09h0l-.32,2.72h.68Z" transform="translate(-372.41 -271.44)"></path><path class="cls-2" d="M413.33,291.2h-.71v-6.31h1.32a.65.65,0,0,1,.58.42,2.83,2.83,0,0,1,.22,1.24,3,3,0,0,1-.15,1,.74.74,0,0,1-.49.52v0l.16.05a.59.59,0,0,1,.21.16,1,1,0,0,1,.18.36,2.36,2.36,0,0,1,.07.67c0,.1,0,.24,0,.42s0,.37,0,.56,0,.37,0,.53a2.87,2.87,0,0,0,0,.34h-.7a2.35,2.35,0,0,1-.07-.6v-1.15a2.81,2.81,0,0,0,0-.45.71.71,0,0,0-.15-.3.45.45,0,0,0-.31-.11h-.19Zm0-3.58h.32a.2.2,0,0,0,.17-.09.66.66,0,0,0,.12-.22,1.33,1.33,0,0,0,.06-.3c0-.11,0-.22,0-.32a1.63,1.63,0,0,0-.09-.64.32.32,0,0,0-.27-.19h-.32Z" transform="translate(-372.41 -271.44)"></path></svg> 