<?xml version="1.0" encoding="UTF-8"?> <svg xmlns="http://www.w3.org/2000/svg" id="Layer_1" data-name="Layer 1" viewBox="0 0 45.35 75.03"><defs><style>.cls-1{fill:#fff;}.cls-2{fill:#231f20;}</style></defs><polygon class="cls-1" points="45.35 0 0 0 0 75.03 45.35 75.03 45.35 0 45.35 0"></polygon><polyline class="cls-2" points="44.7 0.7 44.7 74.33 0.66 74.33 0.66 0.7 44.7 0.7"></polyline><rect class="cls-1" x="2.74" y="2.77" width="39.88" height="14.67"></rect><rect class="cls-1" x="2.73" y="19.54" width="39.88" height="29.96"></rect><polygon class="cls-1" points="2.72 72.27 2.72 66.79 10.72 66.79 10.72 68.07 5.93 68.07 5.93 68.86 9.99 68.86 9.99 70.14 5.93 70.14 5.93 71 10.91 71 10.91 72.27 2.72 72.27"></polygon><path class="cls-1" d="M76,124.61a.58.58,0,0,0-.46-.37,2.88,2.88,0,0,0-.83-.11c-.71,0-1,.12-1,.33,0,.81,5.64.3,5.64,2.29,0,1.27-1.9,1.89-4.59,1.89s-4.28-.84-4.35-1.83h3.08a.82.82,0,0,0,.53.43,3,3,0,0,0,.92.14c.8,0,1.34-.15,1.34-.41,0-.83-5.65-.26-5.65-2.35,0-1.16,1.8-1.75,4.25-1.75,2.73,0,4,.78,4.2,1.74Z" transform="translate(-58.25 -56.22)"></path><path class="cls-1" d="M84.11,125.39h1.26c1,0,1.53-.15,1.53-.52s-.54-.58-1.29-.58h-1.5Zm0,1.19v1.91H80.89V123h4.63c3.28,0,4.35.5,4.35,1.57,0,.63-.5,1.16-1.64,1.34,1,.21,1.66.34,1.66,1.45,0,.71,0,1,.34,1v.16H87a2.12,2.12,0,0,1-.16-1c0-.72-.22-1-1.72-1Z" transform="translate(-58.25 -56.22)"></path><path class="cls-1" d="M95.06,124.29v.92H96.4c.65,0,1.11-.17,1.11-.48s-.63-.44-1.31-.44Zm0,1.91v1h1.41c.8,0,1.39-.1,1.39-.51s-.74-.51-1.77-.51Zm-3.21,2.29V123h4.69c2.21,0,4,.3,4,1.38,0,.57-.66,1-1.28,1.19,1.06.16,1.63.67,1.63,1.26,0,1.22-1.67,1.65-4.23,1.65Z" transform="translate(-58.25 -56.22)"></path><path class="cls-2" d="M62.89,65.48H62.1v-5h1.47a.77.77,0,0,1,.65.33,1.69,1.69,0,0,1,.24,1,1.82,1.82,0,0,1-.16.82.77.77,0,0,1-.55.42h0l.18,0a.49.49,0,0,1,.23.13.74.74,0,0,1,.2.29,1.25,1.25,0,0,1,.08.53c0,.08,0,.19,0,.34s0,.29,0,.44,0,.3,0,.43a1.1,1.1,0,0,0,0,.27h-.78a1.61,1.61,0,0,1-.08-.48v-.92a1.16,1.16,0,0,0-.06-.35.47.47,0,0,0-.51-.34h-.21Zm0-2.86h.36a.26.26,0,0,0,.19-.07.42.42,0,0,0,.13-.18.84.84,0,0,0,.06-.24,1.06,1.06,0,0,0,0-.25.93.93,0,0,0-.1-.51.37.37,0,0,0-.3-.15h-.36Z" transform="translate(-58.25 -56.22)"></path><path class="cls-2" d="M64.75,65.48l1.06-5h1l1,5h-.84l-.21-1.12H65.76l-.22,1.12Zm1.54-4.06h0l-.36,2.17h.75Z" transform="translate(-58.25 -56.22)"></path><path class="cls-2" d="M70.22,60.45v.83h-.89v4.2h-.79v-4.2h-.89v-.83Z" transform="translate(-58.25 -56.22)"></path><path class="cls-2" d="M70.59,65.48v-5h.79v5Z" transform="translate(-58.25 -56.22)"></path><path class="cls-2" d="M72.06,65.48v-5h1.08l1,3.48h0V60.45h.74v5H73.85l-1-3.68h0v3.68Z" transform="translate(-58.25 -56.22)"></path><path class="cls-2" d="M77.31,62c0-.11,0-.22,0-.33a1.06,1.06,0,0,0-.06-.28.58.58,0,0,0-.15-.19.39.39,0,0,0-.25-.07.33.33,0,0,0-.29.15,1.48,1.48,0,0,0-.15.41,4.83,4.83,0,0,0-.05.6c0,.22,0,.46,0,.7,0,.39,0,.71,0,1a2.24,2.24,0,0,0,.09.56.41.41,0,0,0,.45.34.64.64,0,0,0,.2,0l.2-.07V63.62h-.44v-.78H78.1v2.55l-.21,0-.29.06-.3,0a1.42,1.42,0,0,1-.27,0,2,2,0,0,1-.8-.14,1,1,0,0,1-.45-.46,2.46,2.46,0,0,1-.2-.82c0-.33,0-.74,0-1.22,0-.31,0-.63,0-.93a3.22,3.22,0,0,1,.16-.82,1.34,1.34,0,0,1,.4-.58,1.18,1.18,0,0,1,.77-.23,1.27,1.27,0,0,1,.52.11,1.11,1.11,0,0,1,.4.32,1.36,1.36,0,0,1,.23.5,2.58,2.58,0,0,1,.06.7Z" transform="translate(-58.25 -56.22)"></path><path class="cls-2" d="M80,60.45H81.4a1,1,0,0,1,.47.1.77.77,0,0,1,.31.31,1.32,1.32,0,0,1,.18.47,3,3,0,0,1,.06.62,2.82,2.82,0,0,1,0,.48,1.56,1.56,0,0,1-.14.48,1,1,0,0,1-.32.37,1,1,0,0,1-.56.15h-.59v2.05H80Zm.8,2.21h.44a.25.25,0,0,0,.16-.06.53.53,0,0,0,.13-.16,1,1,0,0,0,.08-.21,1.07,1.07,0,0,0,0-.25,2.64,2.64,0,0,0,0-.29.66.66,0,0,0-.07-.25.42.42,0,0,0-.13-.16.4.4,0,0,0-.22-.06h-.4Z" transform="translate(-58.25 -56.22)"></path><path class="cls-2" d="M82.9,65.48v-5H85v.77H83.7v1.24h1.18v.77H83.7V64.7H85v.78Z" transform="translate(-58.25 -56.22)"></path><path class="cls-2" d="M85.54,65.48v-5h1.08l1,3.48h0V60.45h.74v5h-1l-1-3.68h0v3.68Z" transform="translate(-58.25 -56.22)"></path><path class="cls-2" d="M89.07,60.45H90.4a1,1,0,0,1,.63.17,1.09,1.09,0,0,1,.38.48,2.79,2.79,0,0,1,.18.79c0,.31,0,.65,0,1v.45a5.36,5.36,0,0,1,0,.55,3.45,3.45,0,0,1-.1.56,1.35,1.35,0,0,1-.21.49,1.24,1.24,0,0,1-.37.35,1.08,1.08,0,0,1-.56.14h-1.3Zm.79,4.25h.39a.44.44,0,0,0,.29-.09.55.55,0,0,0,.18-.3,3,3,0,0,0,.09-.54c0-.22,0-.49,0-.81s0-.45,0-.66a2.26,2.26,0,0,0-.06-.55,1,1,0,0,0-.16-.39.42.42,0,0,0-.32-.14h-.42Z" transform="translate(-58.25 -56.22)"></path><path class="cls-2" d="M92.28,65.48v-5h.79v5Z" transform="translate(-58.25 -56.22)"></path><path class="cls-2" d="M93.75,65.48v-5h1.07l1,3.48h0V60.45h.74v5h-1l-1-3.68h0v3.68Z" transform="translate(-58.25 -56.22)"></path><path class="cls-2" d="M99,62c0-.11,0-.22,0-.33a.77.77,0,0,0-.07-.28.45.45,0,0,0-.14-.19.39.39,0,0,0-.25-.07.33.33,0,0,0-.29.15,1,1,0,0,0-.14.41,2.64,2.64,0,0,0-.06.6c0,.22,0,.46,0,.7,0,.39,0,.71,0,1a2.18,2.18,0,0,0,.1.56.45.45,0,0,0,.17.27.49.49,0,0,0,.28.07l.2,0a.84.84,0,0,0,.19-.07V63.62h-.43v-.78h1.23v2.55l-.21,0-.29.06-.31,0a1.28,1.28,0,0,1-.26,0,2,2,0,0,1-.8-.14,1,1,0,0,1-.45-.46,2.24,2.24,0,0,1-.2-.82c0-.33,0-.74,0-1.22,0-.31,0-.63,0-.93a2.84,2.84,0,0,1,.16-.82,1.26,1.26,0,0,1,.4-.58,1.15,1.15,0,0,1,.76-.23,1.29,1.29,0,0,1,.53.11,1,1,0,0,1,.39.32,1.23,1.23,0,0,1,.24.5,2.58,2.58,0,0,1,.06.7Z" transform="translate(-58.25 -56.22)"></path><rect class="cls-1" x="2.73" y="51.58" width="39.88" height="13.13"></rect><path class="cls-2" d="M62.67,108.89v4h1.07v.79H61.93v-4.74Z" transform="translate(-58.25 -56.22)"></path><path class="cls-2" d="M64.77,108.89v4.74h-.72v-4.74Z" transform="translate(-58.25 -56.22)"></path><path class="cls-2" d="M66.06,108.89v2l.85-2h.8l-1,2.13,1,2.61h-.82l-.83-2.4v2.4h-.73v-4.74Z" transform="translate(-58.25 -56.22)"></path><path class="cls-2" d="M69.92,108.89v.73H68.75v1.17h1.08v.73H68.75v1.37H70v.74H68v-4.74Z" transform="translate(-58.25 -56.22)"></path><path class="cls-2" d="M71.14,108.89v4h1.08v.79H70.41v-4.74Z" transform="translate(-58.25 -56.22)"></path><path class="cls-2" d="M72.69,108.89l.52,2,.56-2h.74l-1,3v1.74H72.8v-1.74l-.9-3Z" transform="translate(-58.25 -56.22)"></path><path class="cls-2" d="M77,108.89l.55,3.22.58-3.22h1.13v4.74h-.71V110l-.68,3.66h-.69L76.55,110v3.66h-.69v-4.74Z" transform="translate(-58.25 -56.22)"></path><path class="cls-2" d="M81.51,108.89l.94,4.74h-.76l-.19-1h-1l-.2,1h-.72l1-4.74Zm-.86,3h.7L81,109.8Z" transform="translate(-58.25 -56.22)"></path><path class="cls-2" d="M84.56,108.89v.77h-.81v4H83v-4h-.79v-.77Z" transform="translate(-58.25 -56.22)"></path><path class="cls-2" d="M85.59,108.89v3.19c0,.63.14.93.44.93s.48-.33.48-.92v-3.2h.71v3.18c0,1.12-.38,1.64-1.2,1.64s-1.16-.54-1.16-1.65v-3.17Z" transform="translate(-58.25 -56.22)"></path><path class="cls-2" d="M89,108.89c.62,0,.93.39.93,1.25,0,.68-.2,1-.63,1.16.41.08.59.27.62.93l0,.81a3.16,3.16,0,0,0,0,.59h-.71a1.35,1.35,0,0,1-.08-.52v-.73c0-.57-.15-.71-.56-.71h-.14v2h-.73v-4.74Zm-.48,2h.17c.33,0,.52-.1.52-.68s-.17-.64-.54-.64h-.15Z" transform="translate(-58.25 -56.22)"></path><path class="cls-2" d="M92.34,108.89v.73H91.17v1.17h1.08v.73H91.17v1.37h1.21v.74H90.45v-4.74Z" transform="translate(-58.25 -56.22)"></path><path class="cls-2" d="M95.1,109v4.59h-.71V110.1a2.68,2.68,0,0,1-.57.51v-.85a2.1,2.1,0,0,0,.64-.72Z" transform="translate(-58.25 -56.22)"></path><path class="cls-2" d="M97.65,109v.73l-.82,3.86h-.75l.92-3.89H95.85V109Z" transform="translate(-58.25 -56.22)"></path><path class="cls-2" d="M99.28,110.39v1.22h.82v.71h-.82v1.22h-.53v-1.22h-.82v-.71h.82v-1.22Z" transform="translate(-58.25 -56.22)"></path><path class="cls-2" d="M62.82,114.89c.56,0,.79.43.79,1.42s-.27,1.39-.78,1.39h-.39v1.93h-.57v-4.74ZM62.67,117c.24,0,.37-.2.37-.67s-.17-.68-.42-.68h-.18V117Z" transform="translate(-58.25 -56.22)"></path><path class="cls-2" d="M64.84,114.89c.49,0,.73.39.73,1.25,0,.68-.16,1-.49,1.16.32.08.46.27.48.93l0,.81a3.65,3.65,0,0,0,0,.59h-.55a1.62,1.62,0,0,1-.06-.52v-.73c0-.57-.12-.71-.44-.71h-.11v2H63.9v-4.74Zm-.37,2h.13c.26,0,.4-.1.4-.68s-.13-.64-.41-.64h-.12Z" transform="translate(-58.25 -56.22)"></path><path class="cls-2" d="M66.85,119.71c-.87,0-.93-1.11-.93-2.51s.09-2.43.93-2.43,1,1,1,2.46S67.77,119.71,66.85,119.71Zm-.35-2.37c0,1.1,0,1.67.35,1.67s.37-.56.37-1.86v-.45c0-1-.11-1.22-.36-1.22s-.36.41-.36,1.46Z" transform="translate(-58.25 -56.22)"></path><path class="cls-2" d="M69.16,114.89c.6,0,.84.38.84,1.2,0,.6-.16,1-.46,1.08.34.08.5.44.5,1.17,0,.89-.25,1.29-.82,1.29h-1v-4.74Zm-.09,1.94a.3.3,0,0,0,.3-.17.86.86,0,0,0,.08-.47c0-.53-.22-.57-.44-.57h-.24v1.21Zm-.3,2.07H69c.31,0,.48-.09.48-.68s-.11-.66-.43-.66h-.28Z" transform="translate(-58.25 -56.22)"></path><path class="cls-2" d="M71.74,114.89l.73,4.74h-.59l-.15-1H71l-.15,1h-.56l.75-4.74Zm-.68,3h.55l-.28-2.06Z" transform="translate(-58.25 -56.22)"></path><path class="cls-2" d="M73.65,114.89c.6,0,.85.38.85,1.2,0,.6-.16,1-.47,1.08.35.08.51.44.51,1.17,0,.89-.26,1.29-.83,1.29h-1v-4.74Zm-.08,1.94a.31.31,0,0,0,.3-.17,1,1,0,0,0,.07-.47c0-.53-.21-.57-.43-.57h-.25v1.21Zm-.31,2.07h.23c.32,0,.48-.09.48-.68s-.11-.66-.42-.66h-.29Z" transform="translate(-58.25 -56.22)"></path><path class="cls-2" d="M75.52,114.89v4h.84v.79H74.94v-4.74Z" transform="translate(-58.25 -56.22)"></path><path class="cls-2" d="M78,114.89v.73h-.91v1.17H78v.73h-.84v1.37h.94v.74H76.56v-4.74Z" transform="translate(-58.25 -56.22)"></path><path class="cls-2" d="M80.07,114.89l.42,3.22.46-3.22h.88v4.74h-.55V116l-.53,3.66h-.54L79.7,116v3.66h-.53v-4.74Z" transform="translate(-58.25 -56.22)"></path><path class="cls-2" d="M83.55,114.89l.74,4.74h-.6l-.15-1h-.77l-.16,1h-.55l.75-4.74Zm-.67,3h.55l-.29-2.06Z" transform="translate(-58.25 -56.22)"></path><path class="cls-2" d="M85.39,114.89c.9,0,1,1,1,2.42s-.09,2.32-1,2.32h-.83v-4.74Zm-.29,4h.14a.49.49,0,0,0,.31-.08c.18-.15.23-.55.23-1.48a6.18,6.18,0,0,0-.09-1.4.37.37,0,0,0-.43-.31H85.1Z" transform="translate(-58.25 -56.22)"></path><path class="cls-2" d="M87.31,114.89v3.19c0,.63.11.93.35.93s.37-.33.37-.92v-3.2h.56v3.18c0,1.12-.3,1.64-.94,1.64s-.9-.54-.9-1.65v-3.17Z" transform="translate(-58.25 -56.22)"></path><path class="cls-2" d="M89.94,114.89c.49,0,.73.39.73,1.25,0,.68-.16,1-.49,1.16.32.08.46.27.48.93l0,.81a3.65,3.65,0,0,0,0,.59h-.56a2,2,0,0,1-.06-.52v-.73c0-.57-.11-.71-.44-.71h-.1v2H89v-4.74Zm-.37,2h.13c.26,0,.4-.1.4-.68s-.13-.64-.41-.64h-.12Z" transform="translate(-58.25 -56.22)"></path><path class="cls-2" d="M92,119.71c-.87,0-.93-1.11-.93-2.51s.09-2.43.93-2.43,1,1,1,2.46S92.87,119.71,92,119.71Zm-.35-2.37c0,1.1,0,1.67.35,1.67s.37-.56.37-1.86v-.45c0-1-.11-1.22-.36-1.22s-.36.41-.36,1.46Z" transform="translate(-58.25 -56.22)"></path><path class="cls-2" d="M97.76,115v4.59h-.71V116.1a2.46,2.46,0,0,1-.57.51v-.85a2,2,0,0,0,.64-.72Z" transform="translate(-58.25 -56.22)"></path><path class="cls-2" d="M100.27,115v.73l-.82,3.86h-.76l.92-3.89H98.46V115Z" transform="translate(-58.25 -56.22)"></path><path class="cls-2" d="M95.43,116.39v1.22h.82v.71h-.82v1.22H94.9v-1.22h-.82v-.71h.82v-1.22Z" transform="translate(-58.25 -56.22)"></path><path class="cls-2" d="M63.76,67.14l.93,5.31h-.75l-.19-1.18h-1l-.2,1.18h-.7l.95-5.31Zm-.85,3.33h.69l-.35-2.31Z" transform="translate(-58.25 -56.22)"></path><path class="cls-2" d="M65.71,67.14v3.57c0,.71.14,1.05.43,1.05s.48-.37.48-1V67.14h.69V70.7c0,1.25-.37,1.84-1.18,1.84S65,71.93,65,70.69V67.14Zm1.1-1.6-.75,1h-.31l.43-1Z" transform="translate(-58.25 -56.22)"></path><path class="cls-2" d="M68.85,67.14l.91,3.67V67.14h.66v5.31h-.94l-.93-3.89v3.89h-.66V67.14Z" transform="translate(-58.25 -56.22)"></path><path class="cls-2" d="M74.12,68.64h-.69v-.12c0-.46-.12-.69-.35-.69s-.34.23-.34.59A.74.74,0,0,0,73,69l.69.69A1.61,1.61,0,0,1,74.17,71c0,1-.38,1.53-1.17,1.53s-1-.71-1-1.4v-.33h.73V71c0,.53.09.79.38.79s.38-.21.38-.59a.88.88,0,0,0-.37-.75l-.43-.4A1.78,1.78,0,0,1,72,68.46c0-1,.47-1.41,1.13-1.41,1,0,1,.93,1,1.41Z" transform="translate(-58.25 -56.22)"></path><path class="cls-2" d="M75.37,67.14v5.31h-.71V67.14Z" transform="translate(-58.25 -56.22)"></path><path class="cls-2" d="M76.92,67.14l.91,3.67V67.14h.66v5.31h-.93l-.93-3.89v3.89H76V67.14Z" transform="translate(-58.25 -56.22)"></path><path class="cls-2" d="M82.25,68.81h-.7v-.1c0-.59-.12-.84-.34-.84-.39,0-.42.78-.42,2,0,1,0,1.83.42,1.83.24,0,.37-.3.37-1v-.06h.7v.15c0,1.1-.32,1.7-1.06,1.7-1.07,0-1.14-1.2-1.14-2.71s0-2.74,1.18-2.74c.65,0,1,.5,1,1.59Z" transform="translate(-58.25 -56.22)"></path><path class="cls-2" d="M84.36,67.14l.92,5.31h-.75l-.19-1.18h-1l-.19,1.18h-.7l.94-5.31Zm-.85,3.33h.69l-.36-2.31Z" transform="translate(-58.25 -56.22)"></path><path class="cls-2" d="M86.33,67.14v4.42h1v.89H85.6V67.14Z" transform="translate(-58.25 -56.22)"></path><path class="cls-2" d="M88.4,67.14v5.31h-.71V67.14Z" transform="translate(-58.25 -56.22)"></path><path class="cls-2" d="M90.74,67.14V68h-1v1.36h1v.82h-1v2.32H89V67.14Z" transform="translate(-58.25 -56.22)"></path><path class="cls-2" d="M91.78,67.14v5.31h-.71V67.14Z" transform="translate(-58.25 -56.22)"></path><path class="cls-2" d="M94.49,68.81h-.7v-.1c0-.59-.12-.84-.34-.84-.39,0-.42.78-.42,2,0,1,0,1.83.42,1.83.24,0,.37-.3.37-1v-.06h.7v.15c0,1.1-.32,1.7-1.06,1.7-1.07,0-1.14-1.2-1.14-2.71s0-2.74,1.18-2.74c.65,0,1,.5,1,1.59Z" transform="translate(-58.25 -56.22)"></path><path class="cls-2" d="M96.6,67.14l.92,5.31h-.75l-.19-1.18h-1l-.19,1.18h-.7l.94-5.31Zm-.85,3.33h.69l-.36-2.31Z" transform="translate(-58.25 -56.22)"></path><path class="cls-2" d="M99,67.14c.62,0,.92.44.92,1.4,0,.76-.2,1.17-.61,1.3.4.09.57.3.6,1l0,.91a3,3,0,0,0,.05.66h-.7a1.66,1.66,0,0,1-.08-.58v-.82c0-.64-.14-.8-.55-.8h-.13v2.2h-.72V67.14Zm-.46,2.29h.16c.33,0,.51-.11.51-.76S99.06,68,98.7,68h-.15Z" transform="translate(-58.25 -56.22)"></path><path class="cls-2" d="M81.69,94.1a3.77,3.77,0,0,0-3.16-3,4.68,4.68,0,0,0,1.1-5c-.9-3.3-3.57-4.79-7-3.88l-7.74,2.06-.15,0,5.2,19.2,5.17-1.38-2-7.39.25-.07a2.84,2.84,0,0,1,1.74-.07c.65.3.91,1.26,1.2,2.37l.24.88A6.73,6.73,0,0,0,78,101l.32.36,5.92-1.57-.74-.8A22.22,22.22,0,0,1,81.69,94.1ZM73.53,91l-1.32.35-1.34-5L72.19,86c.62-.16,1.67-.44,2.29,1.86C74.6,88.34,75.13,90.59,73.53,91Z" transform="translate(-58.25 -56.22)"></path><path class="cls-2" d="M89,78.24,82,80.1l-.83.22,5.19,19.2,5.3-1.4-2-7.27c.89-.25,2.27-.61,2.27-.61,4.13-1.1,5.84-3.81,4.81-7.62C95.43,77.65,91.8,77.5,89,78.24Zm1.63,8.56-1.88.5c-.3-1.14-1-3.84-1.34-5L89,81.9c.91-.25,1.94-.29,2.61,2.18C91.93,85.26,91.45,86.58,90.62,86.8Z" transform="translate(-58.25 -56.22)"></path></svg> 